<?xml version="1.0" encoding="UTF-8" standalone="no"?>
<!-- Generator: Adobe Illustrator 13.0.2, SVG Export Plug-In . SVG Version: 6.00 Build 14948)  -->
<svg xmlns:dc="http://purl.org/dc/elements/1.1/" xmlns:cc="http://creativecommons.org/ns#" xmlns:rdf="http://www.w3.org/1999/02/22-rdf-syntax-ns#" xmlns:svg="http://www.w3.org/2000/svg" xmlns="http://www.w3.org/2000/svg" xmlns:sodipodi="http://sodipodi.sourceforge.net/DTD/sodipodi-0.dtd" xmlns:inkscape="http://www.inkscape.org/namespaces/inkscape" version="1.1" id="Layer_1" x="0px" y="0px" width="437.99701" height="436.85999" viewBox="-1.681 -0.516 437.99702 436.86" enable-background="new -1.681 -0.516 367.998 366.86" xml:space="preserve" inkscape:version="0.48.3.1 r9886" sodipodi:docname="IUPS_Logo_shrunk.svg"><metadata id="metadata173"><rdf:RDF><cc:Work rdf:about=""><dc:format>image/svg+xml</dc:format><dc:type rdf:resource="http://purl.org/dc/dcmitype/StillImage"/><dc:title/></cc:Work></rdf:RDF></metadata><defs id="defs171"/><sodipodi:namedview pagecolor="#ffffff" bordercolor="#666666" borderopacity="1" objecttolerance="10" gridtolerance="10" guidetolerance="10" inkscape:pageopacity="0" inkscape:pageshadow="2" inkscape:window-width="1057" inkscape:window-height="913" id="namedview169" showgrid="false" showborder="true" fit-margin-top="35" fit-margin-left="35" fit-margin-right="35" fit-margin-bottom="35" inkscape:zoom="1.3995495" inkscape:cx="218.99899" inkscape:cy="218.42997" inkscape:window-x="75" inkscape:window-y="136" inkscape:window-maximized="0" inkscape:current-layer="Layer_1"/>
<path d="m 88.688998,218.61 c 0,71.016 57.766002,128.771 128.767002,128.771 70.983,0 128.747,-57.756 128.747,-128.771 0,-70.979 -57.764,-128.743002 -128.747,-128.743002 -71.001,0 -128.767002,57.765002 -128.767002,128.743002 z m 4.139,0 c 0,-68.677 55.901002,-124.588002 124.628002,-124.588002 68.669,0 124.575,55.911002 124.575,124.588002 0,68.712 -55.906,124.601 -124.575,124.601 -68.727,0 -124.628002,-55.889 -124.628002,-124.601 z" id="path3" inkscape:connector-curvature="0" style="fill:#7aa8bd"/>
<rect x="213.735" y="89.587013" width="1.452" height="252.073" id="rect5" style="fill:#3300cc"/>
<path d="m 206.897,341.336 1.334,-0.531 C 151.898,205.568 207.639,92.134998 208.208,90.996998 l -1.294,-0.674 c -0.571,1.167 -56.622,115.161002 -0.017,251.013002 z" id="path7" inkscape:connector-curvature="0" style="fill:#3300cc"/>
<path d="m 222.333,90.835998 c 0.603,1.12 56.62,115.157002 0.016,250.999002 l -1.32,-0.565 C 277.36,206.062 221.611,92.597998 221.046,91.490998 l -0.398,-0.848 1.205,-0.146 0.48,0.339 z" id="path9" inkscape:connector-curvature="0" style="fill:#3300cc"/>
<path d="M 191.006,338.132 C 95.804998,210.359 190.045,92.632998 191.018,91.455998 l 1.128,0.912 c -0.99,1.176 -94.499002,118.051002 0.028,244.904002 l 1.484,2.07" id="path11" inkscape:connector-curvature="0" style="fill:#3300cc"/>
<path d="m 238.147,92.800998 c 0.962,1.176 95.206,118.888002 0.016,246.669002 L 237,338.605 c 94.494,-126.852 0.979,-243.735002 0.03,-244.917002 l -0.87,-1.088 1.312,-0.11 0.675,0.311 z" id="path13" inkscape:connector-curvature="0" style="fill:#3300cc"/>
<path d="M 162.402,329.746 C 58.812999,208.58 161.388,100.91 162.442,99.843998 l 1.033,1.005002 c -1.04,1.041 -102.704001,107.833 0.021,227.961 l 1.358,1.676" id="path15" inkscape:connector-curvature="0" style="fill:#3300cc"/>
<path d="m 264.771,330.5 c 103.616,-121.181 1.01,-228.856 -0.027,-229.931 l -2.296,-0.461 1.239,1.459 c 1.057,1.083 102.716,107.849 -0.026,227.992 l -1.021,1.254" id="path17" inkscape:connector-curvature="0" style="fill:#3300cc"/>
<g id="g19" transform="translate(34.999999,35.000001)">
	<g id="g21">
		<path d="m 196.842,185.957 c -5.863,-4.616 -12.818,-7.57 -20.401,-7.54 l 0,0 c -6.331,-0.009 -11.604,1.037 -15.111,3.36 l 0,0 c -3.484,2.332 -5.491,5.784 -5.531,11.607 l 0,0 c 0.02,5.094 2.07,8.854 5.633,12.209 l 0,0 c 3.568,3.331 8.69,6.1 14.471,8.72 l 0,0 c 11.57,5.272 25.725,9.918 35.441,18.757 l 0,0 c 6.484,5.879 10.916,13.813 10.895,24.693 l 0,0 c 0.021,11.596 -4.594,20.264 -11.935,25.818 l 0,0 c -7.331,5.566 -17.228,8.104 -27.886,8.107 l 0,0 c -11.601,-0.021 -22.22,-5.338 -25.131,-7.32 -6.54,-4.451 -9.114,-3.549 -9.114,-3.549 -1.321,1.671 0.397,6.608 -2.087,7.516 l -1.395,0.164 c -0.441,0.156 -0.919,0.111 -1.325,-0.127 l 0,0 c -0.402,-0.238 -0.676,-0.639 -0.748,-1.1 l 0,0 c -2.036,-13.014 -4.931,-25.542 -7.833,-38.285 l 0,0 c -0.157,-0.679 0.161,-1.387 0.777,-1.719 l 0,0 2.22,-1.206 c 0.366,-0.2 0.795,-0.241 1.198,-0.122 l 0,0 c 0.4,0.122 0.43,0.137 0.627,0.508 l 2.146,6.209 c 1.021,1.949 2.139,2.922 3.303,4.812 8.248,13.42 25.081,25.472 37.024,25.588 l 0,0 c 6.451,0.006 12.471,-1.354 16.736,-4.346 l 0,0 c 4.258,-3.006 6.945,-7.503 6.977,-14.578 l 0,0 c 0.018,-11.373 -8.534,-17.859 -20.146,-23.596 l 0,0 c -11.536,-5.688 -25.629,-10.205 -35.329,-18.013 l 0,0 c -6.468,-5.19 -10.987,-12.106 -10.961,-21.567 l 0,0 c -0.009,-9.473 3.925,-17.348 10.07,-22.756 l 0,0 c 6.14,-5.415 14.448,-8.413 23.256,-8.417 l 0,0 c 8.542,0 15.88,1.835 18.712,2.576 5.73,1.5 9.439,3.566 9.439,3.566 1.849,1.171 3.554,2.503 5.158,3.857 -5.111,5.572 -9.15,6.174 -9.15,6.174 z m 20.461,2.465 c 1.431,0.557 2.874,0.742 4.374,0.402 1.826,-0.793 3.495,-2.779 3.495,-2.779 0,0 1.51,-2.542 2.86,-0.106 0.595,1.071 1.079,2.379 -0.216,5.403 -1.297,3.023 -1.297,3.023 -1.297,3.023 -0.951,2.084 -5.398,8.705 -6.914,12.1 -1.345,3.012 -4.205,5.525 -4.205,5.525 0,0 -1.977,2.332 -4.209,0.188 -1.412,-1.355 0.783,-3.314 0.973,-5.408 -1.277,-3.172 -2.919,-6.314 -4.876,-9.289 4.91,-2.301 10.015,-9.059 10.015,-9.059 z" id="path23" inkscape:connector-curvature="0" style="fill:#7aa8bd"/>
	</g>
</g>
<path d="m 228.289,235.48 c -5.706,1.492 -11.943,2.213 -18.461,2.217 l 0,0 c -4.787,-0.002 -13.566,-1.756 -18.081,-2.708 -4.854,-7.052 2.451,-12.167 2.451,-12.167 5.381,2.754 12.252,4.04 19.727,4.035 l 0,0 c 3.979,-0.016 7.524,-0.36 10.675,-0.966 m -51.013,-0.311 c -6.186,-5.691 -10.084,-13.466 -10.069,-23.086 l 0,0 v -54.785 c -0.03,-5.54 -1.18,-7.832 -3.111,-9.249 l 0,0 c -1.972,-1.475 -3.292,-2.119 -8.101,-2.947 l 0,0 c -0.747,-0.136 -1.289,-0.78 -1.289,-1.536 l 0,0 v -1.852 c 0,-0.426 0.171,-0.829 0.477,-1.124 l 0,0 c 0.303,-0.293 0.713,-0.451 1.137,-0.438 l 0,0 c 9.394,0.309 16.582,0.618 25.945,0.618 l 0,0 c 6.779,0 13.419,-0.309 20.252,-0.618 l 0,0 c 0.428,-0.019 0.837,0.135 1.15,0.431 l 0,0 c 0.309,0.297 0.48,0.699 0.48,1.131 l 0,0 v 1.852 c 0,0.818 -0.627,1.495 -1.447,1.556 l 0,0 c -7.235,0.519 -11.468,1.853 -13.751,4.13 l 0,0 c -2.298,2.232 -3.247,5.843 -3.244,11.906 l 0,0 v 50.308 c 0.009,3.416 0.503,6.395 1.416,8.993 -7.025,5.769 -9.845,14.71 -9.845,14.71 z" id="path25" inkscape:connector-curvature="0" style="fill:#7aa8bd"/>
<path d="M 221.333,236.93 220.9,226.342 c 4.537,-0.216 7.344,-1.314 7.344,-1.314 16.199,-4.611 20.217,-16.875 20.326,-24.386 l 0,0 V 157.43 c 0.019,-8.185 -0.74,-13.407 -2.812,-16.48 l 0,0 c -2.022,-3.044 -5.499,-4.652 -12.196,-5.425 l 0,0 c -0.793,-0.09 -1.385,-0.754 -1.385,-1.549 l 0,0 -0.004,-1.852 c 0,-0.429 0.172,-0.832 0.479,-1.128 l 0,0 c 0.315,-0.3 0.723,-0.454 1.149,-0.435 l 0,0 c 7.002,0.309 13.984,0.618 20.939,0.618 l 0,0 c 5.75,0 9.869,-0.309 15.68,-0.618 l 0,0 c 0.428,-0.023 0.846,0.131 1.158,0.428 l 0,0 c 0.309,0.292 0.486,0.702 0.486,1.134 l 0,0 v 1.852 c 0,0.785 -0.586,1.447 -1.364,1.546 l 0,0 c -4.864,0.603 -6.782,1.331 -9.036,3.579 l 0,0 c -2.284,2.213 -3.827,6.439 -3.824,14.934 l 0,0 0.002,46.143 c 0.025,12.718 -5.494,22.305 -14.284,28.457 l 0,0 c -3.638,2.559 -7.817,4.552 -12.392,6.012 l -9.833,2.284 z" id="path27" inkscape:connector-curvature="0" style="fill:#7aa8bd"/>
<path d="m 36.309999,218.61 c 0,99.951 81.230001,181.151 181.146001,181.151 99.913,0 181.114,-81.2 181.114,-181.151 C 398.57,118.731 317.369,37.476001 217.456,37.476001 117.54,37.477001 36.309999,118.731 36.309999,218.61 z m 6.408,0 c 0,-96.323 78.393001,-174.682999 174.738001,-174.682999 96.313,0 174.706,78.358999 174.706,174.682999 0,96.347 -78.393,174.753 -174.706,174.753 -96.345,0 -174.738001,-78.406 -174.738001,-174.753 z" id="path29" inkscape:connector-curvature="0" style="fill:#7aa8bd"/>
<path d="M 210.552,344.051" id="path31" inkscape:connector-curvature="0" style="fill:#7aa8bd"/>
<path d="M 210.552,344.051" id="path33" inkscape:connector-curvature="0" style="fill:#7aa8bd"/>
<path d="M 224.663,344.326" id="path35" inkscape:connector-curvature="0" style="fill:#7aa8bd"/>
<path d="M 224.663,93.430998" id="path37" inkscape:connector-curvature="0" style="fill:#7aa8bd"/>
<path d="M 210.552,344.051" id="path39" inkscape:connector-curvature="0" style="fill:#7aa8bd"/>
<path d="M 210.552,218.648" id="path41" inkscape:connector-curvature="0" style="fill:#7aa8bd"/>
<path d="m 123.801,170.141 h -6.191 c 0,0 -1.036,-1.007 0,-2.039 1.038,-1.033 0.521,-1.778 4.127,-2.305 3.553,-0.521 5.895,-1.527 9.484,-2.325 3.593,-0.751 13.084,-1.811 13.084,-1.811 l 8.74,-0.981 c 0,0 2.059,-0.542 3.581,0 1.557,0.511 2.834,0.999 2.571,2.266 -0.247,1.323 0.512,1.821 -1.286,2.588 -1.788,0.789 -4.866,1.019 -5.644,1.282 -0.769,0.253 -3.352,1.556 -4.373,2.824 -1.025,1.287 -3.057,3.871 -4.926,7.701 -1.76,3.847 -3.52,12.839 -3.52,12.839 l -1.568,9.991 -0.491,11.08 0.256,12.923 1.014,14.773 2.838,15.408 4.88,14.383 c 0,0 0.491,1.793 2.049,1.793 1.54,0 6.167,-0.266 6.167,-0.266 l 3.588,0.266 3.075,2.827 c 0,0 1.274,1.309 0.517,2.052 -0.773,0.787 -5.917,0.787 -5.917,0.787 l -17.722,-0.272 h -13.07 l -4.344,-0.741 -2.835,-2.846 c 0,0 0.481,-1.526 1.505,-2.072 1.025,-0.516 4.41,-0.75 4.41,-0.75 0,0 1.264,0.234 0.708,-1.032 -0.475,-1.298 -3.074,-5.638 -3.074,-5.638 l -2.526,-8.734 c 0,0 -2.335,-10.288 -2.335,-11.82 0,-1.535 -1.013,-9.491 -1.013,-11.02 0,-1.556 -0.51,-13.626 -0.281,-14.902 0.281,-1.277 1.04,-11.048 1.294,-13.346 0.277,-2.308 0.777,-8.218 1.557,-11.821 0.779,-3.587 2.041,-8.44 3.074,-11.034 1.024,-2.563 2.597,-10.028 2.597,-10.028 z" id="path43" inkscape:connector-curvature="0" style="fill:#7aa8bd"/>
<path d="m 128.676,328.205 2.128,1.65 -12.098,16.209 -2.239,-1.665 12.209,-16.194 z" id="path45" inkscape:connector-curvature="0" style="fill:#3300cc"/>
<path d="m 112.755,319.623 0.04,0.027 -3.588,18.934 2.413,2.189 13.63,-14.98 -1.952,-1.806 -11.034,12.11 -0.027,-0.033 3.45,-19.064 -2.3,-2.059 -13.672002,14.975 1.963002,1.803 11.077,-12.096 z" id="path47" inkscape:connector-curvature="0" style="fill:#3300cc"/>
<path d="m 98.332998,324.946 -4.434,-5.22 13.662002,-11.434 -1.78,-2.177 -13.623002,11.536 -4.435,-5.266 -1.875,1.563 10.619,12.587 1.866,-1.589 z" id="path49" inkscape:connector-curvature="0" style="fill:#3300cc"/>
<path d="m 89.820998,287.713 6.658,10.27 -5.667,3.721 -6.043,-9.352 -2.048,1.318 6.057,9.277 -5.203,3.396 -6.574,-10.079 -2.03,1.322 8.046,12.454 16.993002,-11.102 -8.142002,-12.55 -2.047,1.325 z" id="path51" inkscape:connector-curvature="0" style="fill:#3300cc"/>
<path d="m 89.016998,280.805 1.161,2.498 -18.354,8.618 -3.989,-8.492 c -1.443,-3.013 -1.75,-6.533 2.101,-8.353 2.734,-1.258 4.377,-0.357 5.616,0.481 -0.058,-1.225 -0.082,-2.495 2.416,-3.798 l 3.232,-1.736 c 1.016,-0.505 1.354,-0.779 1.43,-1.745 l 0.415,-0.224 1.403,3.077 c -0.953,0.847 -3.694,2.235 -4.384,2.58 -1.511,0.687 -3.127,1.823 -1.734,4.786 l 2.818,6.01 7.869,-3.702 z m -10.01,4.695 -2.69,-5.737 c -0.839,-1.827 -2.194,-3.519 -4.924,-2.241 -2.838,1.338 -2.084,3.5 -1.508,4.731 l 2.904,6.168 6.218,-2.921 z" id="path53" inkscape:connector-curvature="0" style="fill:#3300cc"/>
<path d="m 74.395998,253.604 0.004,0.062 -12.691999,14.462 0.938,3.126 19.420999,-5.95 -0.792,-2.534 -15.672,4.801 -0.004,-0.064 12.662,-14.625 -0.923,-2.939 -19.367999,5.918 0.752,2.525 15.673999,-4.782 z" id="path55" inkscape:connector-curvature="0" style="fill:#3300cc"/>
<path d="m 70.286998,244.477 6.164,1.125 0.472,2.766 -21.252999,-4.158 -0.512,-3.065 18.775999,-10.599 0.485,2.949 -5.485,2.961 1.353,8.021 z m -3.562,-6.643 -8.314999,4.432 0.009,0.048 9.323999,1.725 -1.018,-6.205 z" id="path57" inkscape:connector-curvature="0" style="fill:#3300cc"/>
<path d="m 53.996999,233.721 -1.029,-16.396 2.436,-0.144 0.439,6.833 17.807999,-1.023 0.138,2.703 -17.789999,1.049 0.405,6.846 -2.407,0.132 z" id="path59" inkscape:connector-curvature="0" style="fill:#3300cc"/>
<path d="m 73.570998,211.06 -0.084,2.734 -20.235999,-0.518 0.075,-2.758 20.244999,0.542 z" id="path61" inkscape:connector-curvature="0" style="fill:#3300cc"/>
<path d="m 65.482998,189.956 c 4.741,0.607 7.828,3.67 7.286,8.064 -0.577,4.335 -4.364,6.553 -9.081999,5.93 -4.736,-0.616 -7.833,-3.693 -7.274,-8.06 0.54,-4.361 4.342,-6.535 9.069999,-5.934 z m 0.364,-2.812 c -4.330999,-0.572 -10.873999,0.941 -11.828999,8.43 -1.005,7.506 4.957,10.622 9.279,11.186 4.360999,0.552 10.909999,-0.938 11.865999,-8.452 0.972,-7.503 -4.983,-10.605 -9.316,-11.164 z" id="path63" inkscape:connector-curvature="0" style="fill:#3300cc"/>
<path d="m 60.703999,167.515 0.703,-2.582 19.483999,5.517 -0.828,2.933 -18.521999,5.506 -0.024,0.059 15.735999,4.43 -0.707,2.557 -19.533999,-5.533 0.897,-3.09 18.506999,-5.293 0.028,-0.063 -15.739999,-4.441 z" id="path65" inkscape:connector-curvature="0" style="fill:#3300cc"/>
<path d="m 76.148998,159.947 -6.901,-6.524 0.018,-0.048 9.358,0.793 -2.475,5.779 z m 5.127,-5.71 6.201,0.507 1.193,-2.756 -21.525,-1.306 -1.222,2.829 15.566,15.075 1.125,-2.598 -4.572,-4.296 3.234,-7.455 z" id="path67" inkscape:connector-curvature="0" style="fill:#3300cc"/>
<path d="m 89.001998,146.741 5.16,-8.869 2.106,1.239 -6.56,11.234 -17.499,-10.17 1.362,-2.367 15.431,8.933 z" id="path69" inkscape:connector-curvature="0" style="fill:#3300cc"/>
<path d="m 95.660998,106.901 10.128002,8.407 c 3.198,2.652 4.233,6.899 0.678,11.138 -3.494,4.209 -7.682002,3.757 -10.574002,1.373 l -10.44,-8.643 1.765,-2.099 9.838,8.153 c 3.391002,2.822 6.020002,1.521 7.591002,-0.367 1.595,-1.901 2.513,-4.829 -0.865,-7.649 L 93.921998,109 l 1.739,-2.099 z" id="path71" inkscape:connector-curvature="0" style="fill:#3300cc"/>
<path d="m 110.251,93.045998 1.97,-1.793 13.647,14.958002 -2.323,2.095 -18.619,-5.223 -0.027,0.066 11.012,12.135 -1.973,1.793 -13.631,-15.027 2.405,-2.184002 18.513,5.315002 0.041,-0.034 -11.015,-12.101002 z" id="path73" inkscape:connector-curvature="0" style="fill:#3300cc"/>
<path d="m 119.353,85.956998 -2.173,1.616 12.117,16.261002 2.178,-1.654 -12.122,-16.223002 z" id="path75" inkscape:connector-curvature="0" style="fill:#3300cc"/>
<path d="m 143.245,82.697998 c 2.444,4.128 1.891,8.427 -1.881,10.705 -3.808,2.253 -7.799,0.63 -10.23,-3.462 -2.462,-4.113 -1.964,-8.435 1.852,-10.707 3.716,-2.273 7.753,-0.615 10.259,3.464 z m 2.404,-1.447 c -2.229,-3.772 -7.462,-7.945 -13.999,-4.106 -6.45,3.892 -5.204,10.458 -2.97,14.233 2.257,3.744 7.473,7.989 13.953,4.091 6.492,-3.87 5.257,-10.455 3.016,-14.218 z" id="path77" inkscape:connector-curvature="0" style="fill:#3300cc"/>
<path d="m 158.254,64.944001 2.447,-1.033 7.708,18.763997 -2.85,1.191 -15.747,-11.259 -0.044,0.036 6.208,15.141 -2.461,1.012 -7.7,-18.766 3.021,-1.22 15.562,11.316 0.069,-0.011 -6.213,-15.170997 z" id="path79" inkscape:connector-curvature="0" style="fill:#3300cc"/>
<path d="m 192.441,66.475998 c 0.907,4.688 -1.02,8.593 -5.336,9.452 -4.312,0.844 -7.609,-2.058 -8.53,-6.734 -0.9,-4.672997 1.033,-8.592997 5.337,-9.436997 4.319,-0.856 7.588,2.048 8.529,6.718997 z m 2.74,-0.529 c -0.829,-4.337997 -4.315,-10.052997 -11.74,-8.570997 -7.416,1.463 -8.465,8.073997 -7.61,12.395997 0.837,4.267 4.3,9.979 11.738,8.53 7.411,-1.459 8.478,-8.089 7.612,-12.355 z" id="path81" inkscape:connector-curvature="0" style="fill:#3300cc"/>
<path d="m 202.644,75.603998 -2.748,0.169 -1.226,-20.214997 13.983,-0.869 0.159,2.434 -11.266,0.685 0.375,6.147 9.922,-0.567 0.152,2.427997 -9.929,0.6 0.578,9.188 z" id="path83" inkscape:connector-curvature="0" style="fill:#3300cc"/>
<path d="m 228.49,57.742001 5.529,0.607 c 2.237,0.282 3.883,1.306 3.586,3.846 -0.313,2.722 -2.055,3.400997 -4.51,3.154997 l -5.406,-0.636997 0.801,-6.971 z m -1.074,9.281997 6.35,0.755 c 4.375,0.513 6.338,-2.464 6.641,-5.331997 0.381,-3.241 -1.59,-5.874 -5.311,-6.287 l -9.04,-1.074 -2.346,20.165997 2.726,0.293 0.98,-8.521 z" id="path85" inkscape:connector-curvature="0" style="fill:#3300cc"/>
<path d="m 259.406,61.126001 2.673,0.65 -5.012,19.649997 -2.659,-0.667 2.323,-9.191 -10.257,-2.572 -2.316,9.162 -2.65,-0.714 4.967,-19.607997 2.681,0.665 -2.073,8.142997 10.262,2.588 2.061,-8.105997 z" id="path87" inkscape:connector-curvature="0" style="fill:#3300cc"/>
<path d="m 268.577,85.842998 -2.538,-1.019 3.047,-7.55 -2.54,-14.116997 2.946,1.218 1.729,11.205997 9.059,-6.864 2.963,1.21 -11.617,8.346 -3.049,7.57 z" id="path89" inkscape:connector-curvature="0" style="fill:#3300cc"/>
<path d="m 295.07,83.145998 c 1.432,-2.811 -0.379,-4.934 -2.375,-6.035 -1.492,-0.859 -4.271,-1.859 -5.771,0.823 -0.846,1.494 -0.065,2.577 0.814,3.41 l 4.416,3.985 c 1.996,1.837 2.936,4.197 1.366,6.995 -2.354,4.17 -6.898,3.137 -9.94,1.451 -3.252,-1.862 -3.984,-3.537 -4.375,-4.692 -0.746,-2.208 -0.213,-3.845 0.712,-5.521 l 2.259,1.277 c -1.804,3.189 0.29,5.621 2.555,6.898 1.718,0.947 4.875,2.124 6.289,-0.415 1.041,-1.821 0.486,-2.894 -2.003,-5.22 l -3.163,-2.864 c -1.01,-0.937 -3.153,-3.204 -1.418,-6.313 1.566,-2.729 4.855,-4.439 9.155,-2.005 6.164,3.437 4.672,7.506 3.726,9.489 l -2.247,-1.263 z" id="path91" inkscape:connector-curvature="0" style="fill:#3300cc"/>
<path d="m 295.72,100.779 -2.257,-1.555002 11.452,-16.708 2.274,1.535 L 295.72,100.779 z" id="path93" inkscape:connector-curvature="0" style="fill:#3300cc"/>
<path d="m 317.818,94.680998 c -3.326,-2.856 -7.621,-1.923 -10.68,1.704 -3.117,3.644002 -3.309,8.016002 0.051,10.871002 3.387,2.849 7.591,1.9 10.672,-1.71 3.11,-3.672 3.36,-8.012002 -0.043,-10.865002 z M 305.584,109.109 c -5.749,-4.902 -3.447,-11.221002 -0.643,-14.548002 2.91,-3.307 8.68,-6.626 14.468,-1.745 5.796,4.901 3.436,11.211002 0.679,14.515002 -2.842,3.358 -8.65,6.655 -14.504,1.778 z" id="path95" inkscape:connector-curvature="0" style="fill:#3300cc"/>
<path d="m 318.9,117.56 6.925,7.634 -1.78,1.629 -8.719,-9.65 14.959,-13.636 1.824,2.029 -13.209,11.994 z" id="path97" inkscape:connector-curvature="0" style="fill:#3300cc"/>
<path d="m 342.92,135.763 c -3.931,2.73 -8.285,2.534 -10.822,-1.134 -2.517,-3.61 -1.178,-7.703 2.748,-10.453 3.91,-2.742 8.277,-2.569 10.789,1.086 2.504,3.623 1.183,7.713 -2.715,10.501 z m 1.571,2.269 c 3.612,-2.486 7.449,-7.962 3.149,-14.141 -4.334,-6.253 -10.834,-4.537 -14.412,-2.032 -3.594,2.497 -7.439,8.008 -3.109,14.201 4.309,6.21 10.811,4.476 14.372,1.972 z" id="path99" inkscape:connector-curvature="0" style="fill:#3300cc"/>
<path d="m 349.078,150.598 2.797,5.688 c -1.977,0.971 -3.795,1.345 -5.838,0.372 -1.731,-0.844 -2.543,-2.269 -2.979,-3.204 -2.367,-4.812 0.841,-7.884 4.557,-9.737 4.766,-2.346 8.68,-0.881 10.273,2.397 0.988,1.997 1.639,4.986 -1.171,7.309 l 1.171,2.401 c 3.832,-2.525 3.898,-7.215 2.258,-10.659 -2.872,-5.899 -9.213,-6.228 -13.658,-4.014 -1.922,0.919 -4.994,2.524 -6.279,6.633 -0.457,1.375 -0.854,3.44 0.654,6.568 1.216,2.484 3.438,4.231 5.803,4.629 l -2.1,1.744 0.764,1.591 9.75,-4.733 -3.883,-8.017 -2.119,1.032 z" id="path101" inkscape:connector-curvature="0" style="fill:#3300cc"/>
<path d="m 366.603,161.981 -0.92,-2.588 -19.032,6.976 0.939,2.556 19.013,-6.944 z" id="path103" inkscape:connector-curvature="0" style="fill:#3300cc"/>
<path d="m 366.432,183.114 c 3.275,-1.65 3.133,-4.665 2.643,-6.586 -0.916,-3.506 -4.25,-5.735 -9.432,-4.362 -4.614,1.162 -7.746,3.777 -6.456,8.617 0.409,1.716 2.019,4.492 6.814,4.218 l 0.659,2.548 c -7.693,0.83 -9.584,-5.09 -9.951,-6.547 -1.174,-4.488 0.59,-9.622 8.138,-11.562 6.029,-1.568 11.114,0.784 12.608,6.513 1.312,5.049 -1.162,8.493 -4.328,9.727 l -0.695,-2.566 z" id="path105" inkscape:connector-curvature="0" style="fill:#3300cc"/>
<path d="m 362.564,194.874 9.238,2.129 0.015,0.043 -8.463,4.061 -0.79,-6.233 z m -1.502,7.512 -5.619,2.72 0.372,2.95 19.183,-9.764 -0.346,-3.062 -21.072,-5.094 0.363,2.812 6.109,1.377 1.01,8.061 z" id="path107" inkscape:connector-curvature="0" style="fill:#3300cc"/>
<path d="m 358.186,212.6 0.062,10.273 h -2.433 l -0.101,-12.982 20.314,-0.11 0.008,2.717 -17.85,0.102 z" id="path109" inkscape:connector-curvature="0" style="fill:#3300cc"/>
<path d="m 367.426,245.455 c 3.083,0.352 4.477,-2.049 4.873,-4.312 0.244,-1.691 0.22,-4.636 -2.816,-5.128 -1.678,-0.271 -2.449,0.828 -2.904,1.958 l -2.225,5.524 c -0.999,2.496 -2.887,4.199 -6.062,3.687 -4.755,-0.757 -5.362,-5.361 -4.8,-8.782 0.588,-3.707 1.926,-4.987 2.881,-5.752 1.803,-1.458 3.506,-1.528 5.393,-1.238 l -0.409,2.547 c -3.613,-0.584 -5.157,2.209 -5.541,4.766 -0.308,1.977 -0.323,5.326 2.528,5.777 2.092,0.339 2.9,-0.521 4.221,-3.707 l 1.58,-3.951 c 0.537,-1.254 1.909,-4.067 5.389,-3.498 3.127,0.48 5.883,3.016 5.119,7.84 -1.133,7.024 -5.385,7.061 -7.634,6.811 l 0.407,-2.542 z" id="path111" inkscape:connector-curvature="0" style="fill:#3300cc"/>
<path d="m 361.595,266.775 c 3.639,0.289 5.111,-2.342 5.667,-4.213 1.083,-3.52 -0.684,-7.116 -5.777,-8.678 -4.58,-1.344 -8.569,-0.811 -10.004,4.014 -0.533,1.701 -0.617,4.871 3.648,7.132 l -0.781,2.54 c -7.004,-3.27 -5.517,-9.309 -5.078,-10.763 1.315,-4.45 5.471,-7.886 12.926,-5.647 5.983,1.79 9.107,6.434 7.387,12.082 -1.502,5.036 -5.372,6.672 -8.75,6.088 l 0.762,-2.555 z" id="path113" inkscape:connector-curvature="0" style="fill:#3300cc"/>
<path d="m 344.787,270.797 1.025,-2.519 18.768,7.653 -1.04,2.522 -18.753,-7.656 z" id="path115" inkscape:connector-curvature="0" style="fill:#3300cc"/>
<path d="m 336.297,288.189 6.865,-13.295 18.002,9.324 -6.795,13.097 -2.168,-1.093 5.557,-10.689 -5.523,-2.871 -5.092,9.865 -2.178,-1.117 5.125,-9.846 -6.034,-3.128 -5.62,10.875 -2.139,-1.122 z" id="path117" inkscape:connector-curvature="0" style="fill:#3300cc"/>
<path d="m 343.601,313.42 -1.53,2.205 -16.585,-11.678 1.779,-2.54 19.282,1.058 0.043,-0.111 -13.398,-9.402 1.517,-2.167 16.597,11.689 -1.861,2.624 -19.238,-1.121 -0.014,0.1 13.408,9.343 z" id="path119" inkscape:connector-curvature="0" style="fill:#3300cc"/>
<path d="m 323.727,326.951 c 3.129,1.891 5.643,0.145 6.938,-1.267 2.512,-2.692 2.563,-6.731 -1.32,-10.315 -3.52,-3.268 -7.335,-4.549 -10.786,-0.82 -1.183,1.24 -2.695,4.077 0.102,7.983 l -1.812,1.925 c -4.812,-6.011 -0.778,-10.775 0.287,-11.949 3.123,-3.303 8.375,-4.611 14.09,0.705 4.551,4.309 5.246,9.808 1.225,14.159 -3.586,3.794 -7.8,3.544 -10.551,1.525 l 1.827,-1.946 z" id="path121" inkscape:connector-curvature="0" style="fill:#3300cc"/>
<path d="m 298.99,332.7 9.465,-7.754 4.273,5.284 -8.621,7.023 1.545,1.889 8.674,-7.021 3.9,4.807 -9.338,7.609 1.507,1.879 11.452,-9.338 -12.795,-15.674 -11.602,9.408 1.54,1.888 z" id="path123" inkscape:connector-curvature="0" style="fill:#3300cc"/>
<path d="m 292.002,351.23 c 1.748,2.59 4.5,2.09 6.412,0.859 1.478,-0.89 3.707,-2.84 2.082,-5.434 -0.879,-1.465 -2.245,-1.326 -3.348,-0.933 l -5.652,1.921 c -2.559,0.826 -5.072,0.531 -6.758,-2.225 -2.52,-4.1 0.588,-7.562 3.531,-9.363 3.199,-1.99 5.068,-1.777 6.237,-1.541 2.269,0.399 3.479,1.664 4.448,3.263 l -2.195,1.364 c -1.889,-3.148 -5.039,-2.483 -7.23,-1.111 -1.69,1.04 -4.246,3.199 -2.732,5.694 1.107,1.821 2.305,1.87 5.541,0.796 l 4.08,-1.365 c 1.26,-0.422 4.301,-1.206 6.127,1.785 1.668,2.703 1.531,6.438 -2.633,9 -6.041,3.736 -8.832,0.49 -10.109,-1.377 l 2.199,-1.333 z" id="path125" inkscape:connector-curvature="0" style="fill:#3300cc"/>
<path d="m 189.793,374.687 -2.426,-0.305 2.208,-14.886 c -0.678,0.473 -1.479,0.914 -2.515,1.289 -1.023,0.382 -1.888,0.678 -2.7,0.828 l 0.34,-2.241 c 1.468,-0.413 2.725,-0.993 3.844,-1.694 1.138,-0.753 1.967,-1.498 2.5,-2.241 l 1.547,0.226 -2.798,19.024 z" id="path127" inkscape:connector-curvature="0" style="fill:#3300cc"/>
<path d="m 198.732,374.735 c 0.948,0.875 2.168,1.37 3.704,1.424 1.448,0.086 2.751,-0.194 3.852,-0.931 1.119,-0.697 1.988,-1.78 2.629,-3.199 0.588,-1.424 0.967,-3.365 1.095,-5.821 0.115,-2.337 -0.07,-4.142 -0.568,-5.378 -0.481,-1.285 -1.251,-2.268 -2.26,-3.021 -1.04,-0.71 -2.183,-1.085 -3.458,-1.164 -1.762,-0.113 -3.272,0.414 -4.504,1.54 -1.219,1.134 -1.888,2.675 -1.982,4.604 -0.103,1.902 0.397,3.419 1.457,4.648 1.056,1.207 2.387,1.858 4.041,1.937 0.966,0.05 1.865,-0.138 2.712,-0.579 0.867,-0.43 1.559,-0.988 2.058,-1.725 0,0.191 0,0.367 0,0.477 -0.043,0.971 -0.202,1.912 -0.499,2.837 -0.28,0.936 -0.629,1.659 -1.003,2.196 -0.389,0.531 -0.862,0.933 -1.438,1.277 -0.576,0.262 -1.235,0.385 -1.982,0.34 -0.865,-0.023 -1.57,-0.273 -2.101,-0.773 -0.537,-0.462 -0.864,-1.275 -1.007,-2.328 l -2.318,0.053 c 0.107,1.497 0.651,2.736 1.572,3.586 z m 7.503,-8.413 c -0.768,0.734 -1.691,1.062 -2.826,1.007 -1.118,-0.067 -2.028,-0.507 -2.72,-1.273 -0.742,-0.804 -1.025,-1.82 -0.987,-3.042 0.06,-1.375 0.525,-2.459 1.347,-3.271 0.837,-0.836 1.787,-1.196 2.871,-1.141 1.057,0.03 1.935,0.497 2.605,1.333 0.711,0.815 1.014,1.918 0.947,3.26 -0.086,1.359 -0.476,2.42 -1.237,3.127 z" id="path129" inkscape:connector-curvature="0" style="fill:#3300cc"/>
<path d="m 212.345,371.174 2.435,-0.241 c 0.265,1.153 0.73,2.043 1.466,2.575 0.702,0.568 1.491,0.834 2.432,0.774 1.358,-0.085 2.298,-0.519 3.003,-1.382 0.763,-0.928 1.125,-2.064 1.05,-3.477 -0.068,-1.37 -0.493,-2.38 -1.309,-3.146 -0.824,-0.719 -1.906,-1.084 -3.053,-1.025 -0.818,0.025 -1.532,0.267 -2.124,0.636 -0.624,0.39 -1.067,0.888 -1.421,1.474 l -2.287,-0.212 1.458,-9.955 9.802,-0.448 0.116,2.217 -7.876,0.355 -0.794,5.221 c 1.121,-0.862 2.341,-1.316 3.767,-1.381 1.518,-0.084 3.075,0.461 4.303,1.533 1.229,1.094 1.896,2.566 1.968,4.393 0.097,1.752 -0.352,3.291 -1.325,4.59 -1.198,1.604 -2.881,2.459 -4.932,2.556 -1.904,0.07 -3.419,-0.28 -4.562,-1.263 -1.185,-0.923 -1.909,-2.169 -2.117,-3.794 z" id="path131" inkscape:connector-curvature="0" style="fill:#3300cc"/>
<path d="m 230.278,373.885 c 1.274,0.795 2.777,1.098 4.485,0.851 1.895,-0.252 3.384,-1.062 4.444,-2.395 1.112,-1.351 1.521,-2.839 1.308,-4.483 -0.195,-1.229 -0.652,-2.201 -1.413,-2.937 -0.752,-0.723 -1.71,-1.142 -2.927,-1.225 0.824,-0.538 1.43,-1.159 1.794,-1.882 0.365,-0.751 0.466,-1.535 0.365,-2.344 -0.144,-0.863 -0.499,-1.639 -1.081,-2.342 -0.596,-0.699 -1.355,-1.211 -2.324,-1.52 -0.986,-0.295 -1.994,-0.396 -3.06,-0.206 -1.552,0.192 -2.794,0.802 -3.701,1.817 -0.924,1 -1.438,2.293 -1.511,3.909 l 2.491,0.044 c 0.021,-1.135 0.274,-2.041 0.833,-2.699 0.532,-0.652 1.296,-1.068 2.233,-1.166 0.961,-0.146 1.744,0.019 2.429,0.482 0.689,0.46 1.102,1.132 1.224,1.97 0.152,1.099 -0.14,1.937 -0.913,2.575 -0.728,0.637 -1.612,1.012 -2.627,1.191 -0.112,0.006 -0.243,0.016 -0.425,0.032 l 0.03,2.073 c 0.671,-0.281 1.236,-0.439 1.684,-0.514 1.088,-0.147 2.071,0.061 2.87,0.646 0.826,0.604 1.321,1.424 1.482,2.486 0.163,1.164 -0.103,2.132 -0.751,2.982 -0.658,0.894 -1.583,1.389 -2.711,1.589 -0.969,0.152 -1.826,-0.046 -2.574,-0.529 -0.713,-0.501 -1.336,-1.386 -1.783,-2.69 l -2.377,0.678 c 0.406,1.557 1.218,2.777 2.506,3.607 z" id="path133" inkscape:connector-curvature="0" style="fill:#3300cc"/>
<path d="m 33.318999,215.624 c 0,99.942 81.227001,181.146 181.143001,181.146 99.909,0 181.116,-81.203 181.116,-181.146 0,-99.883 -81.207,-181.139999 -181.116,-181.139999 -99.917,0 -181.143001,81.256999 -181.143001,181.139999 z m 6.41,0 c 0,-96.327 78.391001,-174.689999 174.733001,-174.689999 96.319,0 174.712,78.362999 174.712,174.689999 0,96.341 -78.393,174.749 -174.712,174.749 -96.342,0 -174.733001,-78.408 -174.733001,-174.749 z" id="path135" inkscape:connector-curvature="0" style="fill:#3300cc"/>
<path d="m 85.697998,215.624 c 0,71.015 57.767002,128.767 128.764002,128.767 70.989,0 128.749,-57.752 128.749,-128.767 0,-70.983 -57.76,-128.750002 -128.749,-128.750002 C 143.464,86.874998 85.697998,144.641 85.697998,215.624 z m 4.139,0 c 0,-68.683 55.901002,-124.593002 124.625002,-124.593002 68.671,0 124.579,55.910002 124.579,124.593002 0,68.7 -55.908,124.597 -124.579,124.597 -68.724,0 -124.625002,-55.897 -124.625002,-124.597 z" id="path137" inkscape:connector-curvature="0" style="fill:#3300cc"/>
<path d="M 207.557,341.057" id="path139" inkscape:connector-curvature="0" style="fill:#3300cc"/>
<path d="M 207.557,341.057" id="path141" inkscape:connector-curvature="0" style="fill:#3300cc"/>
<path d="M 221.672,341.336" id="path143" inkscape:connector-curvature="0" style="fill:#3300cc"/>
<path d="M 221.672,90.441998" id="path145" inkscape:connector-curvature="0" style="fill:#3300cc"/>
<path d="M 207.557,341.057" id="path147" inkscape:connector-curvature="0" style="fill:#3300cc"/>
<path d="M 207.557,215.655" id="path149" inkscape:connector-curvature="0" style="fill:#3300cc"/>
<path d="m 120.811,167.148 h -6.194 c 0,0 -1.036,-1 0,-2.041 1.042,-1.031 0.523,-1.773 4.129,-2.306 3.552,-0.519 5.897,-1.525 9.483,-2.32 3.589,-0.752 13.084,-1.812 13.084,-1.812 l 8.737,-0.981 c 0,0 2.063,-0.542 3.587,0 1.552,0.508 2.832,1.003 2.571,2.265 -0.246,1.322 0.509,1.822 -1.286,2.592 -1.788,0.788 -4.872,1.017 -5.645,1.275 -0.771,0.255 -3.354,1.559 -4.374,2.832 -1.023,1.286 -3.057,3.866 -4.928,7.699 -1.758,3.844 -3.521,12.837 -3.521,12.837 l -1.565,9.996 -0.491,11.075 0.254,12.921 1.018,14.773 2.832,15.41 4.887,14.379 c 0,0 0.491,1.791 2.044,1.791 1.543,0 6.172,-0.258 6.172,-0.258 l 3.583,0.258 3.075,2.83 c 0,0 1.278,1.311 0.52,2.054 -0.773,0.786 -5.916,0.786 -5.916,0.786 l -17.724,-0.273 h -13.071 l -4.34,-0.74 -2.836,-2.846 c 0,0 0.48,-1.52 1.505,-2.068 1.024,-0.519 4.41,-0.754 4.41,-0.754 0,0 1.261,0.235 0.709,-1.033 -0.482,-1.297 -3.077,-5.634 -3.077,-5.634 l -2.523,-8.737 c 0,0 -2.339,-10.285 -2.339,-11.824 0,-1.525 -1.014,-9.488 -1.014,-11.016 0,-1.553 -0.507,-13.622 -0.28,-14.901 0.28,-1.278 1.042,-11.049 1.294,-13.345 0.281,-2.311 0.78,-8.216 1.559,-11.821 0.781,-3.585 2.041,-8.442 3.073,-11.034 1.024,-2.563 2.598,-10.029 2.598,-10.029 z" id="path151" inkscape:connector-curvature="0" style="fill:#3300cc"/>
<path d="m 286.416,171.062 c 1.271,2.304 1.271,3.315 2.561,6.157 1.291,2.83 1.805,5.146 2.562,8.207 0.773,3.08 1.546,3.855 2.314,7.966 0.768,4.114 1.058,5.888 1.058,10.266 0,4.375 1.007,5.661 1.247,9.5 0.295,3.861 0.295,5.643 0.295,6.938 0,1.295 0,3.616 0,3.616 0,0 1.54,0 3.307,0 1.786,0 2.873,0.184 5.131,-1.015 2.301,-1.306 4.112,-2.602 5.887,-4.917 1.829,-2.293 1.829,-5.13 2.34,-7.701 0.562,-2.572 0.562,-6.925 0,-11.034 -0.511,-4.107 -0.238,-5.915 -1.019,-9.496 -0.786,-3.611 -1.566,-6.447 -2.327,-7.964 -0.769,-1.537 -3.597,-6.922 -3.597,-6.922 0,0 -2.772,-4.394 -5.097,-6.434 -2.307,-2.059 -3.085,-1.032 -5.922,-2.059 -2.844,-1.024 -2.58,-0.502 -5.396,-0.502 -2.844,0 -3.344,0.502 -5.4,1.016 -0.001,0.002 0.761,2.072 2.056,4.378 z m -21.834,-10.013 c 3.346,0.028 5.662,-1.034 9.25,-0.526 3.591,0.526 7.462,-0.508 12.348,0.29 4.855,0.743 6.133,-0.29 10.273,0.508 4.069,0.76 6.18,0.76 9.722,1.756 3.597,1.043 5.924,1.567 8.725,3.866 2.827,2.326 3.63,3.092 5.665,4.878 2.047,1.821 3.326,5.915 4.354,7.716 1.021,1.781 2.057,5.621 2.318,7.952 0.247,2.313 1.273,5.909 1.033,8.471 -0.26,2.57 0,6.676 -1.033,10.014 -1.021,3.343 -2.318,6.675 -3.832,9.247 -1.59,2.558 -2.609,4.874 -5.101,6.923 -2.599,2.159 -4.176,3.529 -6.763,4.604 -2.538,1.031 -4.016,1.811 -7.144,2.844 -3.097,1.023 -7.708,1.541 -7.708,1.541 0,0 -0.236,3.589 -0.771,5.643 -0.519,2.052 -0.762,4.114 -1.557,7.444 -0.746,3.351 -2.049,7.968 -2.561,10.541 -0.5,2.575 -1.805,7.95 -2.041,8.991 -0.264,1.009 1.021,1.009 3.325,0.789 2.314,-0.289 2.616,-0.541 5.138,-0.541 2.57,0 2.087,-0.779 3.627,0 1.553,0.761 2.007,1.521 1.76,2.58 -0.207,1.018 -0.762,1.787 -2.063,2.285 -1.236,0.507 -7.692,1.792 -7.692,1.792 0,0 -5.652,1.04 -10.013,1.53 -4.375,0.534 -11.267,1.053 -11.267,1.053 0,0 -7.992,0.246 -9.778,0.762 -1.807,0.507 -1.807,0.795 -3.339,-0.516 -1.529,-1.299 -1.805,-1.789 0.252,-3.607 2.052,-1.769 1.033,-1.769 3.875,-2.281 2.8,-0.509 3.568,0 5.652,-1.018 2.025,-1.059 0.5,0.236 2.025,-2.828 1.555,-3.084 3.604,-14.396 3.604,-14.396 0,0 1.006,-9.244 1.795,-12.312 0.763,-3.095 0.246,-7.701 0.52,-10.754 0.243,-3.117 -1.309,-9.533 -1.554,-14.68 -0.271,-5.135 -1.007,-11.55 -1.515,-15.401 -0.512,-3.857 -1.023,-6.154 -2.342,-10.784 -1.287,-4.612 -1.525,-4.888 -2.533,-9.221 -1.062,-4.383 -1.062,-6.686 -2.853,-7.703 -1.802,-1.038 -3.034,-2.102 -4.884,-2.41 h -4.727 c -1.659,-5.051 5.524,-5.062 7.81,-5.042 z" id="path153" inkscape:connector-curvature="0" style="fill:#7aa8bd"/>
<path d="m 283.293,167.939 c 1.27,2.303 1.27,3.316 2.561,6.158 1.291,2.829 1.806,5.146 2.562,8.207 0.771,3.08 1.545,3.855 2.314,7.966 0.769,4.113 1.059,5.888 1.059,10.265 0,4.375 1.006,5.661 1.247,9.5 0.294,3.861 0.294,5.643 0.294,6.939 0,1.296 0,3.616 0,3.616 0,0 1.541,0 3.308,0 1.786,0 2.872,0.184 5.13,-1.015 2.301,-1.305 4.113,-2.601 5.887,-4.917 1.828,-2.293 1.828,-5.129 2.34,-7.7 0.562,-2.572 0.562,-6.925 0,-11.035 -0.512,-4.106 -0.238,-5.915 -1.02,-9.496 -0.785,-3.611 -1.565,-6.447 -2.326,-7.963 -0.768,-1.538 -3.598,-6.922 -3.598,-6.922 0,0 -2.771,-4.394 -5.096,-6.435 -2.306,-2.059 -3.084,-1.031 -5.923,-2.059 -2.845,-1.024 -2.58,-0.503 -5.395,-0.503 -2.846,0 -3.345,0.503 -5.401,1.017 0,10e-4 0.761,2.072 2.057,4.377 z m -21.834,-10.013 c 3.345,0.029 5.663,-1.033 9.25,-0.526 3.59,0.526 7.463,-0.506 12.348,0.29 4.855,0.744 6.131,-0.29 10.273,0.508 4.07,0.76 6.18,0.76 9.721,1.756 3.598,1.043 5.924,1.567 8.727,3.867 2.826,2.326 3.629,3.091 5.664,4.877 2.048,1.821 3.326,5.916 4.354,7.717 1.021,1.781 2.056,5.621 2.318,7.952 0.246,2.313 1.272,5.909 1.033,8.471 -0.259,2.57 0,6.676 -1.033,10.013 -1.022,3.343 -2.318,6.676 -3.832,9.248 -1.591,2.558 -2.609,4.874 -5.102,6.921 -2.598,2.16 -4.174,3.531 -6.761,4.605 -2.538,1.031 -4.017,1.811 -7.144,2.844 -3.098,1.023 -7.709,1.541 -7.709,1.541 0,0 -0.236,3.59 -0.771,5.644 -0.518,2.05 -0.763,4.114 -1.557,7.444 -0.746,3.35 -2.051,7.967 -2.561,10.539 -0.5,2.576 -1.804,7.951 -2.04,8.992 -0.265,1.008 1.021,1.008 3.323,0.789 2.316,-0.288 2.617,-0.541 5.138,-0.541 2.571,0 2.089,-0.779 3.628,0 1.553,0.76 2.006,1.521 1.76,2.58 -0.207,1.019 -0.762,1.787 -2.062,2.285 -1.236,0.506 -7.693,1.791 -7.693,1.791 0,0 -5.653,1.041 -10.012,1.532 -4.375,0.534 -11.268,1.052 -11.268,1.052 0,0 -7.992,0.246 -9.777,0.763 -1.808,0.507 -1.808,0.794 -3.34,-0.517 -1.53,-1.298 -1.805,-1.789 0.252,-3.606 2.052,-1.769 1.033,-1.769 3.875,-2.281 2.8,-0.509 3.568,0 5.653,-1.019 2.024,-1.059 0.5,0.236 2.024,-2.828 1.555,-3.084 3.604,-14.396 3.604,-14.396 0,0 1.007,-9.245 1.795,-12.313 0.762,-3.094 0.245,-7.701 0.521,-10.754 0.241,-3.117 -1.309,-9.533 -1.554,-14.68 -0.271,-5.136 -1.008,-11.551 -1.515,-15.401 -0.513,-3.857 -1.025,-6.155 -2.343,-10.783 -1.287,-4.612 -1.524,-4.888 -2.532,-9.222 -1.063,-4.384 -1.063,-6.686 -2.854,-7.702 -1.802,-1.039 -2.578,-2.578 -4.093,-1.817 0,0 -5.377,1.091 -5.993,-0.245 -2.412,-5.232 5.999,-5.41 8.285,-5.39 z" id="path155" inkscape:connector-curvature="0" style="fill:#3300cc"/>
<g id="g157" transform="translate(34.999999,35.000001)">
	<g id="g159">
		<path d="m 193.72,182.835 c -5.865,-4.617 -12.818,-7.57 -20.402,-7.54 l 0,0 c -6.331,-0.009 -11.604,1.036 -15.111,3.36 l 0,0 c -3.484,2.332 -5.491,5.783 -5.531,11.607 l 0,0 c 0.021,5.094 2.07,8.854 5.633,12.21 l 0,0 c 3.568,3.33 8.691,6.1 14.472,8.72 l 0,0 c 11.571,5.272 25.724,9.918 35.441,18.756 l 0,0 c 6.484,5.88 10.916,13.812 10.894,24.693 l 0,0 c 0.022,11.596 -4.593,20.263 -11.933,25.819 l 0,0 c -7.332,5.566 -17.229,8.103 -27.886,8.106 l 0,0 c -11.602,-0.021 -22.221,-5.337 -25.132,-7.319 -6.541,-4.452 -9.114,-3.55 -9.114,-3.55 -1.322,1.672 0.396,6.609 -2.087,7.516 l -1.396,0.164 c -0.441,0.156 -0.92,0.112 -1.325,-0.127 l 0,0 c -0.403,-0.238 -0.676,-0.639 -0.748,-1.1 l 0,0 c -2.036,-13.014 -4.932,-25.541 -7.833,-38.285 l 0,0 c -0.157,-0.678 0.161,-1.387 0.776,-1.719 l 0,0 2.22,-1.207 c 0.367,-0.199 0.796,-0.24 1.199,-0.121 l 0,0 c 0.399,0.121 0.43,0.137 0.626,0.508 l 2.146,6.209 c 1.022,1.949 2.14,2.922 3.304,4.812 8.248,13.42 25.081,25.473 37.023,25.588 l 0,0 c 6.45,0.006 12.47,-1.354 16.737,-4.346 l 0,0 c 4.258,-3.006 6.944,-7.502 6.976,-14.578 l 0,0 c 0.018,-11.373 -8.534,-17.859 -20.146,-23.596 l 0,0 c -11.535,-5.688 -25.628,-10.205 -35.328,-18.012 l 0,0 c -6.467,-5.191 -10.987,-12.108 -10.961,-21.568 l 0,0 c -0.009,-9.473 3.926,-17.348 10.07,-22.756 l 0,0 c 6.141,-5.415 14.449,-8.414 23.257,-8.417 l 0,0 c 8.542,0 15.88,1.835 18.713,2.576 5.73,1.5 9.438,3.565 9.438,3.565 1.85,1.171 3.553,2.504 5.158,3.857 -5.112,5.571 -9.15,6.175 -9.15,6.175 z m 20.46,2.465 c 1.432,0.556 2.873,0.741 4.373,0.401 1.828,-0.793 3.496,-2.779 3.496,-2.779 0,0 1.51,-2.542 2.861,-0.105 0.594,1.068 1.079,2.378 -0.218,5.402 -1.296,3.023 -1.296,3.023 -1.296,3.023 -0.951,2.085 -5.398,8.705 -6.914,12.1 -1.344,3.012 -4.205,5.525 -4.205,5.525 0,0 -1.977,2.333 -4.209,0.188 -1.412,-1.355 0.783,-3.313 0.973,-5.409 -1.277,-3.17 -2.918,-6.313 -4.877,-9.288 4.91,-2.301 10.016,-9.058 10.016,-9.058 z" id="path161" inkscape:connector-curvature="0" style="fill:#3300cc"/>
	</g>
</g>
<path d="m 225.166,232.357 c -5.705,1.492 -11.942,2.214 -18.461,2.217 l 0,0 c -4.788,-0.002 -9.521,-0.475 -14.038,-1.426 -4.852,-7.053 -1.592,-13.449 -1.592,-13.449 5.38,2.754 12.251,4.041 19.727,4.035 l 0,0 c 3.98,-0.016 7.524,-0.359 10.673,-0.967 m -51.011,-0.31 c -6.187,-5.691 -10.084,-13.467 -10.068,-23.086 l 0,0 v -54.785 c -0.03,-5.541 -1.18,-7.832 -3.113,-9.249 l 0,0 c -1.971,-1.476 -3.291,-2.12 -8.1,-2.947 l 0,0 c -0.747,-0.136 -1.288,-0.78 -1.288,-1.537 l 0,0 V 129 c 0,-0.426 0.171,-0.828 0.475,-1.124 l 0,0 c 0.304,-0.293 0.714,-0.451 1.138,-0.438 l 0,0 c 9.394,0.31 16.581,0.618 25.944,0.618 l 0,0 c 6.78,0 13.419,-0.308 20.252,-0.618 l 0,0 c 0.428,-0.019 0.837,0.135 1.15,0.432 l 0,0 c 0.309,0.296 0.479,0.699 0.479,1.13 l 0,0 v 1.853 c 0,0.819 -0.628,1.494 -1.447,1.556 l 0,0 c -7.235,0.518 -11.469,1.852 -13.751,4.129 l 0,0 c -2.299,2.233 -3.248,5.844 -3.244,11.906 l 0,0 v 50.308 c 0.009,3.416 0.503,6.394 1.415,8.993 -7.022,5.772 -9.842,14.712 -9.842,14.712 z" id="path163" inkscape:connector-curvature="0" style="fill:#3300cc"/>
<path d="m 218.21,233.806 -0.432,-10.587 c 4.536,-0.215 7.343,-1.313 7.343,-1.313 16.199,-4.613 20.217,-16.875 20.326,-24.386 l 0,0 v -43.211 c 0.018,-8.186 -0.742,-13.408 -2.812,-16.48 l 0,0 c -2.021,-3.045 -5.498,-4.652 -12.195,-5.425 l 0,0 c -0.793,-0.09 -1.385,-0.754 -1.385,-1.549 l 0,0 -0.003,-1.855 c 0,-0.428 0.171,-0.831 0.479,-1.128 l 0,0 c 0.312,-0.3 0.723,-0.453 1.149,-0.435 l 0,0 c 7.002,0.31 13.983,0.618 20.939,0.618 l 0,0 c 5.749,0 9.869,-0.308 15.679,-0.618 l 0,0 c 0.428,-0.023 0.845,0.132 1.159,0.429 l 0,0 c 0.308,0.292 0.484,0.702 0.484,1.133 l 0,0 v 1.853 c 0,0.786 -0.585,1.446 -1.362,1.547 l 0,0 c -4.865,0.602 -6.783,1.33 -9.037,3.579 l 0,0 c -2.284,2.212 -3.828,6.439 -3.824,14.934 l 0,0 0.003,46.142 c 0.024,12.719 -5.496,22.305 -14.286,28.458 l 0,0 c -3.637,2.559 -7.815,4.552 -12.391,6.011 l -9.834,2.283 z" id="path165" inkscape:connector-curvature="0" style="fill:#3300cc"/>
<rect width="366.31601" height="366.34399" id="rect167" x="34.999996" y="34.999996" style="fill:none"/>
</svg>